<svg xmlns="http://www.w3.org/2000/svg" viewBox="0 0 24 24" fill="currentColor" class="size-6">
  <g transform="translate(12,12) scale(0.1748) translate(-681.27,-263.65)">
    <path fill="#00caff" fill-rule="nonzero" d="m 0,0 c -1.558,0.797 -3.178,1.696 -4.941,2.748 -20.018,-0.629 -39.17,4.798 -53.953,15.277 -1.225,0.844 -2.51,1.79 -3.915,2.888 C -70.301,12.234 -79.256,5.199 -89.432,0 c -1.635,-0.835 -2.847,-2.21 -3.451,-3.9 H 3.452 C 2.848,-2.21 1.637,-0.835 0,0" transform="matrix(1.3333333,0,0,-1.3333333,740.89587,255.21493)" />
    <path fill="#00caff" fill-rule="nonzero" d="m 0,0 c 1.559,-0.797 3.177,-1.696 4.942,-2.748 1.037,0.034 2.077,0.049 3.111,0.049 18.881,0 36.825,-5.39 50.841,-15.326 1.226,-0.843 2.509,-1.79 3.916,-2.887 C 70.3,-12.235 79.254,-5.2 89.432,0 c 1.634,0.835 2.847,2.209 3.451,3.899 H -3.45 C -2.848,2.209 -1.636,0.835 0,0" transform="matrix(1.3333333,0,0,-1.3333333,621.6536,272.08467)" />
    <path fill="#00caff" fill-rule="nonzero" d="m 0,0 c -1.241,2.429 -3.605,3.879 -6.325,3.879 -2.722,0 -5.086,-1.45 -6.326,-3.879 -2.092,-4.093 -4.544,-8.074 -7.293,-11.838 C -6.576,-24.196 10.099,-31.394 29.642,-33.242 17.077,-24.868 6.847,-13.398 0,0" transform="matrix(1.3333333,0,0,-1.3333333,689.7096,204.02747)" />
    <path fill="#00caff" fill-rule="nonzero" d="m 0,0 c 1.241,-2.428 3.605,-3.879 6.326,-3.879 2.721,0 5.085,1.451 6.326,3.879 2.091,4.093 4.543,8.075 7.292,11.839 C 6.576,24.197 -10.098,31.395 -29.641,33.243 -17.077,24.868 -6.847,13.399 0,0" transform="matrix(1.3333333,0,0,-1.3333333,672.83987,323.27227)" />
  </g>
</svg>
